# xmcd
#
# Track frame offsets: 
#        150
#        14192
#        27428
#        39415
#        54865
#        72273
#        89760
#        106630
#        125491
#        140244
#        149991
#        166990
#        189562
#        208646
#        220116
#        239127
#        259049
#
# Disc length: 3704 seconds
#
# Revision: 1
# Processed by: cddbd v1.5.2PL0 Copyright (c) Steve Scherf et al.
# Submitted via: ExactAudioCopy v1.0b3
#
DISCID=0d0e7611
DTITLE=Van Morrison - His Band and the Street Choir [expanded]
DYEAR=1970
DGENRE=Folk Rock
TTITLE0=Domino
TTITLE1=Crazy Face
TTITLE2=Give Me a Kiss
TTITLE3=I've Been Working
TTITLE4=Call Me Up in Dreamland
TTITLE5=I'll Be Your Lover, Too
TTITLE6=Blue Money
TTITLE7=Virgo Clowns
TTITLE8=Gypsy Queen
TTITLE9=Sweet Jannie
TTITLE10=If I Ever Needed Someone
TTITLE11=Street Choir
TTITLE12=Call Me Up in Dreamland [take 10]
TTITLE13=Give Me a Kiss [take 3]
TTITLE14=Gypsy Queen [take 3]
TTITLE15=I've Been Working [alternate version]
TTITLE16=I'll Be Your Lover, Too [alternate version]
EXTD=
EXTT0=
EXTT1=
EXTT2=
EXTT3=
EXTT4=
EXTT5=
EXTT6=
EXTT7=
EXTT8=
EXTT9=
EXTT10=
EXTT11=
EXTT12=
EXTT13=
EXTT14=
EXTT15=
EXTT16=
PLAYORDER=
